<svg width="310" height="70" viewBox="0 0 310 70" fill="none" xmlns="http://www.w3.org/2000/svg">
<rect width="155" height="70" rx="8" fill="#3b82f6"/>
<path d="M48.6 12.52L42.968 44.584C42.2427 48.552 40.4507 51.688 37.592 53.992C34.776 56.296 31.4267 57.448 27.544 57.448C24.1307 57.448 21.4213 56.5733 19.416 54.824C17.4533 53.032 16.472 50.5787 16.472 47.464C16.472 46.44 16.5573 45.48 16.728 44.584H24.088C24.0027 44.968 23.96 45.5227 23.96 46.248C23.96 47.6987 24.344 48.8507 25.112 49.704C25.9227 50.5573 27.1173 50.984 28.696 50.984C30.5733 50.984 32.088 50.408 33.24 49.256C34.4347 48.0613 35.224 46.504 35.608 44.584L41.24 12.52H48.6ZM71.797 57.448C68.0423 57.448 64.7357 56.6587 61.877 55.08C59.0183 53.5013 56.7997 51.2827 55.221 48.424C53.6423 45.5653 52.853 42.3227 52.853 38.696C52.853 33.6187 53.9837 29.0533 56.245 25C58.549 20.904 61.7063 17.704 65.717 15.4C69.7703 13.096 74.293 11.944 79.285 11.944C83.0823 11.944 86.4103 12.7333 89.269 14.312C92.1277 15.8907 94.3463 18.1093 95.925 20.968C97.5037 23.784 98.293 27.0053 98.293 30.632C98.293 35.7093 97.141 40.296 94.837 44.392C92.5757 48.488 89.4183 51.688 85.365 53.992C81.3543 56.296 76.8317 57.448 71.797 57.448ZM72.821 50.856C76.3197 50.856 79.413 49.96 82.101 48.168C84.8317 46.376 86.9437 43.9867 88.437 41C89.973 37.9707 90.741 34.6853 90.741 31.144C90.741 27.2613 89.6317 24.2107 87.413 21.992C85.237 19.7307 82.1863 18.6 78.261 18.6C74.7623 18.6 71.6477 19.496 68.917 21.288C66.229 23.0373 64.1383 25.4053 62.645 28.392C61.1517 31.3787 60.405 34.664 60.405 38.248C60.405 42.1307 61.493 45.2027 63.669 47.464C65.8877 49.7253 68.9383 50.856 72.821 50.856ZM137.409 23.976C136.982 26.536 135.937 28.6693 134.273 30.376C132.609 32.0827 130.561 33.3413 128.129 34.152C130.091 34.4933 131.713 35.496 132.993 37.16C134.273 38.824 134.913 40.7867 134.913 43.048C134.913 43.7307 134.849 44.392 134.721 45.032C134.337 47.2933 133.398 49.3413 131.905 51.176C130.411 52.968 128.449 54.3973 126.017 55.464C123.627 56.488 120.961 57 118.017 57H100.225L108.097 12.52H125.057C129.11 12.52 132.203 13.3947 134.337 15.144C136.513 16.8933 137.601 19.1547 137.601 21.928C137.601 22.568 137.537 23.2507 137.409 23.976ZM129.857 24.872C129.942 24.2747 129.985 23.8267 129.985 23.528C129.985 21.864 129.409 20.5627 128.257 19.624C127.105 18.6853 125.483 18.216 123.393 18.216H114.369L112.065 31.4H121.089C123.478 31.4 125.441 30.824 126.977 29.672C128.555 28.52 129.515 26.92 129.857 24.872ZM127.553 44.264C127.638 43.5813 127.681 43.0907 127.681 42.792C127.681 41.0427 127.041 39.656 125.761 38.632C124.481 37.608 122.774 37.096 120.641 37.096H111.041L108.545 51.304H118.401C120.875 51.304 122.923 50.6853 124.545 49.448C126.166 48.2107 127.169 46.4827 127.553 44.264Z" fill="white"/>
<path
        d="M181.84 57.448C178.725 57.448 175.909 56.9147 173.392 55.848C170.917 54.7813 168.955 53.2453 167.504 51.24C166.053 49.2347 165.307 46.8667 165.264 44.136H174.864C174.992 45.9707 175.632 47.4213 176.784 48.488C177.979 49.5547 179.6 50.088 181.648 50.088C183.739 50.088 185.381 49.5973 186.576 48.616C187.771 47.592 188.368 46.2693 188.368 44.648C188.368 43.3253 187.963 42.2373 187.152 41.384C186.341 40.5307 185.317 39.8693 184.08 39.4C182.885 38.888 181.221 38.3333 179.088 37.736C176.187 36.8827 173.819 36.0507 171.984 35.24C170.192 34.3867 168.635 33.128 167.312 31.464C166.032 29.7573 165.392 27.496 165.392 24.68C165.392 22.0347 166.053 19.7307 167.376 17.768C168.699 15.8053 170.555 14.312 172.944 13.288C175.333 12.2213 178.064 11.688 181.136 11.688C185.744 11.688 189.477 12.8187 192.336 15.08C195.237 17.2987 196.837 20.4133 197.136 24.424H187.28C187.195 22.888 186.533 21.6293 185.296 20.648C184.101 19.624 182.501 19.112 180.496 19.112C178.747 19.112 177.339 19.56 176.272 20.456C175.248 21.352 174.736 22.6533 174.736 24.36C174.736 25.5547 175.12 26.5573 175.888 27.368C176.699 28.136 177.68 28.776 178.832 29.288C180.027 29.7573 181.691 30.312 183.824 30.952C186.725 31.8053 189.093 32.6587 190.928 33.512C192.763 34.3653 194.341 35.6453 195.664 37.352C196.987 39.0587 197.648 41.2987 197.648 44.072C197.648 46.4613 197.029 48.68 195.792 50.728C194.555 52.776 192.741 54.4187 190.352 55.656C187.963 56.8507 185.125 57.448 181.84 57.448ZM235.816 12.328V19.56H223.912V57H214.952V19.56H203.048V12.328H235.816ZM251.314 19.56V30.76H266.354V37.864H251.314V49.704H268.274V57H242.354V12.264H268.274V19.56H251.314ZM299.456 57L289.6 39.592H285.376V57H276.416V12.328H293.184C296.64 12.328 299.584 12.9467 302.016 14.184C304.448 15.3787 306.261 17.0213 307.456 19.112C308.693 21.16 309.312 23.464 309.312 26.024C309.312 28.968 308.459 31.6347 306.752 34.024C305.045 36.3707 302.507 37.992 299.136 38.888L309.824 57H299.456ZM285.376 32.872H292.864C295.296 32.872 297.109 32.296 298.304 31.144C299.499 29.9493 300.096 28.3067 300.096 26.216C300.096 24.168 299.499 22.5893 298.304 21.48C297.109 20.328 295.296 19.752 292.864 19.752H285.376V32.872Z" fill="#3b82f6"/>
</svg>